<svg xmlns="http://www.w3.org/2000/svg" width="479" height="481" viewBox="0 0 479 481">
  <metadata><?xpacket begin="﻿" id="W5M0MpCehiHzreSzNTczkc9d"?>
<x:xmpmeta xmlns:x="adobe:ns:meta/" x:xmptk="Adobe XMP Core 5.6-c142 79.160924, 2017/07/13-01:06:39        ">
   <rdf:RDF xmlns:rdf="http://www.w3.org/1999/02/22-rdf-syntax-ns#">
      <rdf:Description rdf:about=""/>
   </rdf:RDF>
</x:xmpmeta>
<?xpacket end="w"?></metadata>
<defs>
    <style>
      .cls-1 {
        fill-rule: evenodd;
      }
    </style>
  </defs>
  <path class="cls-1" d="M204.341,235.342s22.508-8.856,22.508-139.123c-0.416-44.4-5.592-95.6-5.592-95.6h19.014l1.173,235.03s1.118,31.868-34.113,49.2c0,0,1.118,82.745-1.678,106.227s0,33.545-63.193,57.027-115.2,48.64-129.742,17.331S-5.737,378.212,16.632,287.08,85.977,140.04,121.768,123.268,180.488,109.85,190,152.9,204.341,235.342,204.341,235.342Z"/>
  <path id="Shape_1_copy" data-name="Shape 1 copy" class="cls-1" d="M275.469,235.342S252.96,226.486,252.96,96.219c0.416-44.4,5.593-95.6,5.593-95.6H239.539l-1.173,235.03s-1.119,31.868,34.113,49.2c0,0-1.119,82.745,1.678,106.227s0,33.545,63.193,57.027,115.2,48.64,129.742,17.331,18.455-87.217-3.915-178.349S393.833,140.04,358.042,123.268s-58.72-13.418-68.227,29.631S275.469,235.342,275.469,235.342Z"/>
</svg>