
<svg width="512" height="512" viewBox="0 0 490 490" fill="current" xmlns="http://www.w3.org/2000/svg">
<g clip-path="url(#clip0_1_5)">
<path  d="M204.341 235.342C204.341 235.342 226.849 226.486 226.849 96.219C226.433 51.819 221.257 0.618988 221.257 0.618988H240.271L241.444 235.649C241.444 235.649 242.562 267.517 207.331 284.849C207.331 284.849 208.449 367.594 205.653 391.076C202.857 414.558 205.653 424.621 142.46 448.103C79.267 471.585 27.26 496.743 12.718 465.434C-1.824 434.125 -5.737 378.212 16.632 287.08C39.001 195.948 85.977 140.04 121.768 123.268C157.559 106.496 180.488 109.85 190 152.9C199.512 195.95 204.341 235.342 204.341 235.342Z" fill="current"/>
<path  d="M275.469 235.342C275.469 235.342 252.96 226.486 252.96 96.219C253.376 51.819 258.553 0.618988 258.553 0.618988H239.539L238.366 235.649C238.366 235.649 237.247 267.517 272.479 284.849C272.479 284.849 271.36 367.594 274.157 391.076C276.954 414.558 274.157 424.621 337.35 448.103C400.543 471.585 452.55 496.743 467.092 465.434C481.634 434.125 485.547 378.217 463.177 287.085C440.807 195.953 393.833 140.04 358.042 123.268C322.251 106.496 299.322 109.85 289.815 152.899C280.308 195.948 275.469 235.342 275.469 235.342Z" fill="current"/>
</g>
<defs>
<clipPath id="clip0_1_5">
<rect width="512" height="512" fill="current"/>
</clipPath>
</defs>
</svg>
