<svg width="512" height="1120" viewBox="0 0 512 1120" fill="current" xmlns="http://www.w3.org/2000/svg">
<path d="M106.667 256C106.667 226.545 82.7885 202.667 53.3333 202.667C23.8781 202.667 -3.6188e-06 226.545 -2.33127e-06 256C-1.04375e-06 285.455 23.8781 309.333 53.3333 309.333C82.7885 309.333 106.667 285.455 106.667 256Z" />
<path d="M309.333 256C309.333 226.545 285.455 202.667 256 202.667C226.545 202.667 202.667 226.545 202.667 256C202.667 285.455 226.545 309.333 256 309.333C285.455 309.333 309.333 285.455 309.333 256Z" />
<path d="M512 256C512 226.545 488.122 202.667 458.667 202.667C429.211 202.667 405.333 226.545 405.333 256C405.333 285.455 429.211 309.333 458.667 309.333C488.122 309.333 512 285.455 512 256Z" />
<path d="M106.667 458.333C106.667 428.878 82.7885 405 53.3333 405C23.8781 405 -3.6188e-06 428.878 -2.33127e-06 458.333C-1.04375e-06 487.789 23.8781 511.667 53.3333 511.667C82.7885 511.667 106.667 487.789 106.667 458.333Z" />
<path d="M309.333 458.333C309.333 428.878 285.455 405 256 405C226.545 405 202.667 428.878 202.667 458.333C202.667 487.789 226.545 511.667 256 511.667C285.455 511.667 309.333 487.789 309.333 458.333Z" />
<path d="M512 458.333C512 428.878 488.122 405 458.667 405C429.211 405 405.333 428.878 405.333 458.333C405.333 487.789 429.211 511.667 458.667 511.667C488.122 511.667 512 487.789 512 458.333Z" />
<path d="M106.667 53.3333C106.667 23.8782 82.7885 1.164e-05 53.3333 1.29275e-05C23.8781 1.4215e-05 -3.6188e-06 23.8782 -2.33127e-06 53.3334C-1.04375e-06 82.7885 23.8781 106.667 53.3333 106.667C82.7885 106.667 106.667 82.7885 106.667 53.3333Z" />
<path d="M309.333 53.3333C309.333 23.8782 285.455 1.164e-05 256 1.29275e-05C226.545 1.4215e-05 202.667 23.8782 202.667 53.3334C202.667 82.7885 226.545 106.667 256 106.667C285.455 106.667 309.333 82.7885 309.333 53.3333Z" />
<path d="M512 53.3333C512 23.8782 488.122 1.164e-05 458.667 1.29275e-05C429.211 1.4215e-05 405.333 23.8782 405.333 53.3334C405.333 82.7885 429.211 106.667 458.667 106.667C488.122 106.667 512 82.7885 512 53.3333Z" />
<path d="M106.667 864C106.667 834.545 82.7885 810.667 53.3333 810.667C23.8781 810.667 -3.6188e-06 834.545 -2.33127e-06 864C-1.04375e-06 893.455 23.8781 917.333 53.3333 917.333C82.7885 917.333 106.667 893.455 106.667 864Z" />
<path d="M309.333 864C309.333 834.545 285.455 810.667 256 810.667C226.545 810.667 202.667 834.545 202.667 864C202.667 893.455 226.545 917.333 256 917.333C285.455 917.333 309.333 893.455 309.333 864Z" />
<path d="M512 864C512 834.545 488.122 810.667 458.667 810.667C429.211 810.667 405.333 834.545 405.333 864C405.333 893.455 429.211 917.333 458.667 917.333C488.122 917.333 512 893.455 512 864Z" />
<path d="M106.667 1066.33C106.667 1036.88 82.7885 1013 53.3333 1013C23.8781 1013 -3.6188e-06 1036.88 -2.33127e-06 1066.33C-1.04375e-06 1095.79 23.8781 1119.67 53.3333 1119.67C82.7885 1119.67 106.667 1095.79 106.667 1066.33Z" />
<path d="M309.333 1066.33C309.333 1036.88 285.455 1013 256 1013C226.545 1013 202.667 1036.88 202.667 1066.33C202.667 1095.79 226.545 1119.67 256 1119.67C285.455 1119.67 309.333 1095.79 309.333 1066.33Z" />
<path d="M512 1066.33C512 1036.88 488.122 1013 458.667 1013C429.211 1013 405.333 1036.88 405.333 1066.33C405.333 1095.79 429.211 1119.67 458.667 1119.67C488.122 1119.67 512 1095.79 512 1066.33Z" />
<path d="M106.667 661.333C106.667 631.878 82.7885 608 53.3333 608C23.8781 608 -3.6188e-06 631.878 -2.33127e-06 661.333C-1.04375e-06 690.789 23.8781 714.667 53.3333 714.667C82.7885 714.667 106.667 690.789 106.667 661.333Z" />
<path d="M309.333 661.333C309.333 631.878 285.455 608 256 608C226.545 608 202.667 631.878 202.667 661.333C202.667 690.789 226.545 714.667 256 714.667C285.455 714.667 309.333 690.789 309.333 661.333Z" />
<path d="M512 661.333C512 631.878 488.122 608 458.667 608C429.211 608 405.333 631.878 405.333 661.333C405.333 690.789 429.211 714.667 458.667 714.667C488.122 714.667 512 690.789 512 661.333Z" />
<rect x="3" y="3" width="35.1484" height="26" rx="2" fill="#E5E5E5"/>
<rect x="3.5" y="3.5" width="34.1484" height="25" rx="1.5" stroke="black" stroke-opacity="0.14902"/>
<path d="M10.1094 19.125C9.60938 19.125 9.16797 18.9987 8.78516 18.7461C8.40234 18.4909 8.10286 18.1315 7.88672 17.668C7.67057 17.2018 7.5625 16.651 7.5625 16.0156C7.5625 15.3854 7.67057 14.8385 7.88672 14.375C8.10286 13.9115 8.40365 13.5534 8.78906 13.3008C9.17448 13.0482 9.61979 12.9219 10.125 12.9219C10.5156 12.9219 10.8242 12.987 11.0508 13.1172C11.2799 13.2448 11.4544 13.3906 11.5742 13.5547C11.6966 13.7161 11.7917 13.849 11.8594 13.9531H11.9375V11H12.8594V19H11.9688V18.0781H11.8594C11.7917 18.1875 11.6953 18.3255 11.5703 18.4922C11.4453 18.6562 11.2669 18.8034 11.0352 18.9336C10.8034 19.0612 10.4948 19.125 10.1094 19.125ZM10.2344 18.2969C10.6042 18.2969 10.9167 18.2005 11.1719 18.0078C11.4271 17.8125 11.6211 17.543 11.7539 17.1992C11.8867 16.8529 11.9531 16.4531 11.9531 16C11.9531 15.5521 11.888 15.1602 11.7578 14.8242C11.6276 14.4857 11.4349 14.2227 11.1797 14.0352C10.9245 13.8451 10.6094 13.75 10.2344 13.75C9.84375 13.75 9.51823 13.8503 9.25781 14.0508C9 14.2487 8.80599 14.5182 8.67578 14.8594C8.54818 15.1979 8.48438 15.5781 8.48438 16C8.48438 16.4271 8.54948 16.8151 8.67969 17.1641C8.8125 17.5104 9.00781 17.7865 9.26563 17.9922C9.52604 18.1953 9.84896 18.2969 10.2344 18.2969ZM16.4414 19.1406C16.0612 19.1406 15.7161 19.069 15.4063 18.9258C15.0964 18.7799 14.8503 18.5703 14.668 18.2969C14.4857 18.0208 14.3945 17.6875 14.3945 17.2969C14.3945 16.9531 14.4622 16.6745 14.5977 16.4609C14.7331 16.2448 14.9141 16.0755 15.1406 15.9531C15.3672 15.8307 15.6172 15.7396 15.8906 15.6797C16.1667 15.6172 16.444 15.5677 16.7227 15.5313C17.0872 15.4844 17.3828 15.4492 17.6094 15.4258C17.8385 15.3997 18.0052 15.3568 18.1094 15.2969C18.2161 15.237 18.2695 15.1328 18.2695 14.9844V14.9531C18.2695 14.5677 18.1641 14.2682 17.9531 14.0547C17.7448 13.8411 17.4284 13.7344 17.0039 13.7344C16.5638 13.7344 16.2188 13.8307 15.9688 14.0234C15.7188 14.2161 15.543 14.4219 15.4414 14.6406L14.5664 14.3281C14.7227 13.9635 14.931 13.6797 15.1914 13.4766C15.4544 13.2708 15.7409 13.1276 16.0508 13.0469C16.3633 12.9635 16.6706 12.9219 16.9727 12.9219C17.1654 12.9219 17.3867 12.9453 17.6367 12.9922C17.8893 13.0365 18.1328 13.1289 18.3672 13.2695C18.6042 13.4102 18.8008 13.6224 18.957 13.9062C19.1133 14.1901 19.1914 14.5703 19.1914 15.0469V19H18.2695V18.1875H18.2227C18.1602 18.3177 18.056 18.457 17.9102 18.6055C17.7643 18.7539 17.5703 18.8802 17.3281 18.9844C17.0859 19.0885 16.7904 19.1406 16.4414 19.1406ZM16.582 18.3125C16.9466 18.3125 17.2539 18.2409 17.5039 18.0977C17.7565 17.9544 17.9466 17.7695 18.0742 17.543C18.2044 17.3164 18.2695 17.0781 18.2695 16.8281V15.9844C18.2305 16.0312 18.1445 16.0742 18.0117 16.1133C17.8815 16.1497 17.7305 16.1823 17.5586 16.2109C17.3893 16.237 17.224 16.2604 17.0625 16.2812C16.9036 16.2995 16.7747 16.3151 16.6758 16.3281C16.4362 16.3594 16.2122 16.4102 16.0039 16.4805C15.7982 16.5482 15.6315 16.651 15.5039 16.7891C15.3789 16.9245 15.3164 17.1094 15.3164 17.3437C15.3164 17.6641 15.4349 17.9062 15.6719 18.0703C15.9115 18.2318 16.2148 18.3125 16.582 18.3125ZM21.2529 21.25C21.0967 21.25 20.9574 21.237 20.835 21.2109C20.7126 21.1875 20.6279 21.1641 20.5811 21.1406L20.8154 20.3281C21.0394 20.3854 21.2373 20.4063 21.4092 20.3906C21.5811 20.375 21.7334 20.2982 21.8662 20.1602C22.0016 20.0247 22.1253 19.8047 22.2373 19.5L22.4092 19.0313L20.1904 13H21.1904L22.8467 17.7812H22.9092L24.5654 13H25.5654L23.0186 19.875C22.904 20.1849 22.762 20.4414 22.5928 20.6445C22.4235 20.8503 22.2269 21.0026 22.0029 21.1016C21.7816 21.2005 21.5316 21.25 21.2529 21.25ZM32.6729 11V19H31.7041V12.0156H31.6572L29.7041 13.3125V12.3281L31.7041 11H32.6729Z" fill="black"/>
<rect x="3" y="611" width="36.6953" height="26" rx="2" fill="#E5E5E5"/>
<rect x="3.5" y="611.5" width="35.6953" height="25" rx="1.5" stroke="black" stroke-opacity="0.14902"/>
<path d="M10.1094 627.125C9.60938 627.125 9.16797 626.999 8.78516 626.746C8.40234 626.491 8.10286 626.132 7.88672 625.668C7.67057 625.202 7.5625 624.651 7.5625 624.016C7.5625 623.385 7.67057 622.839 7.88672 622.375C8.10286 621.911 8.40365 621.553 8.78906 621.301C9.17448 621.048 9.61979 620.922 10.125 620.922C10.5156 620.922 10.8242 620.987 11.0508 621.117C11.2799 621.245 11.4544 621.391 11.5742 621.555C11.6966 621.716 11.7917 621.849 11.8594 621.953H11.9375V619H12.8594V627H11.9688V626.078H11.8594C11.7917 626.187 11.6953 626.326 11.5703 626.492C11.4453 626.656 11.2669 626.803 11.0352 626.934C10.8034 627.061 10.4948 627.125 10.1094 627.125ZM10.2344 626.297C10.6042 626.297 10.9167 626.201 11.1719 626.008C11.4271 625.812 11.6211 625.543 11.7539 625.199C11.8867 624.853 11.9531 624.453 11.9531 624C11.9531 623.552 11.888 623.16 11.7578 622.824C11.6276 622.486 11.4349 622.223 11.1797 622.035C10.9245 621.845 10.6094 621.75 10.2344 621.75C9.84375 621.75 9.51823 621.85 9.25781 622.051C9 622.249 8.80599 622.518 8.67578 622.859C8.54818 623.198 8.48438 623.578 8.48438 624C8.48438 624.427 8.54948 624.815 8.67969 625.164C8.8125 625.51 9.00781 625.786 9.26563 625.992C9.52604 626.195 9.84896 626.297 10.2344 626.297ZM16.4414 627.141C16.0612 627.141 15.7161 627.069 15.4063 626.926C15.0964 626.78 14.8503 626.57 14.668 626.297C14.4857 626.021 14.3945 625.687 14.3945 625.297C14.3945 624.953 14.4622 624.674 14.5977 624.461C14.7331 624.245 14.9141 624.076 15.1406 623.953C15.3672 623.831 15.6172 623.74 15.8906 623.68C16.1667 623.617 16.444 623.568 16.7227 623.531C17.0872 623.484 17.3828 623.449 17.6094 623.426C17.8385 623.4 18.0052 623.357 18.1094 623.297C18.2161 623.237 18.2695 623.133 18.2695 622.984V622.953C18.2695 622.568 18.1641 622.268 17.9531 622.055C17.7448 621.841 17.4284 621.734 17.0039 621.734C16.5638 621.734 16.2188 621.831 15.9688 622.023C15.7188 622.216 15.543 622.422 15.4414 622.641L14.5664 622.328C14.7227 621.964 14.931 621.68 15.1914 621.477C15.4544 621.271 15.7409 621.128 16.0508 621.047C16.3633 620.964 16.6706 620.922 16.9727 620.922C17.1654 620.922 17.3867 620.945 17.6367 620.992C17.8893 621.036 18.1328 621.129 18.3672 621.27C18.6042 621.41 18.8008 621.622 18.957 621.906C19.1133 622.19 19.1914 622.57 19.1914 623.047V627H18.2695V626.187H18.2227C18.1602 626.318 18.056 626.457 17.9102 626.605C17.7643 626.754 17.5703 626.88 17.3281 626.984C17.0859 627.089 16.7904 627.141 16.4414 627.141ZM16.582 626.312C16.9466 626.312 17.2539 626.241 17.5039 626.098C17.7565 625.954 17.9466 625.77 18.0742 625.543C18.2044 625.316 18.2695 625.078 18.2695 624.828V623.984C18.2305 624.031 18.1445 624.074 18.0117 624.113C17.8815 624.15 17.7305 624.182 17.5586 624.211C17.3893 624.237 17.224 624.26 17.0625 624.281C16.9036 624.299 16.7747 624.315 16.6758 624.328C16.4362 624.359 16.2122 624.41 16.0039 624.48C15.7982 624.548 15.6315 624.651 15.5039 624.789C15.3789 624.924 15.3164 625.109 15.3164 625.344C15.3164 625.664 15.4349 625.906 15.6719 626.07C15.9115 626.232 16.2148 626.312 16.582 626.312ZM21.2529 629.25C21.0967 629.25 20.9574 629.237 20.835 629.211C20.7126 629.188 20.6279 629.164 20.5811 629.141L20.8154 628.328C21.0394 628.385 21.2373 628.406 21.4092 628.391C21.5811 628.375 21.7334 628.298 21.8662 628.16C22.0016 628.025 22.1253 627.805 22.2373 627.5L22.4092 627.031L20.1904 621H21.1904L22.8467 625.781H22.9092L24.5654 621H25.5654L23.0186 627.875C22.904 628.185 22.762 628.441 22.5928 628.645C22.4235 628.85 22.2269 629.003 22.0029 629.102C21.7816 629.201 21.5316 629.25 21.2529 629.25ZM29.8604 627V626.297L32.501 623.406C32.8109 623.068 33.0661 622.773 33.2666 622.523C33.4671 622.271 33.6156 622.034 33.7119 621.812C33.8109 621.589 33.8604 621.354 33.8604 621.109C33.8604 620.828 33.7926 620.585 33.6572 620.379C33.5244 620.173 33.3421 620.014 33.1104 619.902C32.8786 619.79 32.6182 619.734 32.3291 619.734C32.0218 619.734 31.7536 619.798 31.5244 619.926C31.2979 620.051 31.1221 620.227 30.9971 620.453C30.8747 620.68 30.8135 620.945 30.8135 621.25H29.8916C29.8916 620.781 29.9997 620.37 30.2158 620.016C30.432 619.661 30.7262 619.385 31.0986 619.187C31.4736 618.99 31.8942 618.891 32.3604 618.891C32.8291 618.891 33.2445 618.99 33.6064 619.187C33.9684 619.385 34.2523 619.652 34.458 619.988C34.6637 620.324 34.7666 620.698 34.7666 621.109C34.7666 621.404 34.7132 621.691 34.6064 621.973C34.5023 622.251 34.32 622.562 34.0596 622.906C33.8018 623.247 33.4437 623.664 32.9854 624.156L31.1885 626.078V626.141H34.9072V627H29.8604Z" />
</svg>
